<?xml version="1.0" encoding="UTF-8"?>
<svg width="700pt" height="700pt" version="1.1" viewBox="0 0 700 700" xmlns="http://www.w3.org/2000/svg">
 <g>
  <path d="m300.52 446.96c-8.5469 3.1055-17.629 4.4648-26.707 3.9961-4.3438-0.16406-8.668-0.59375-12.957-1.2891-4.3008-0.63281-8.5195-1.7773-12.82-2.4219-5.1133-0.76563-10.09-2.2773-14.77-4.4805-6.1641-4.4258-10.895-10.559-13.609-17.645-1.8945-10.113-0.20312-20.566 4.7812-29.566 3.2852-4.5664 5.5117-9.8008 6.5156-15.332-11.504-9.4219-17.828-23.758-17.031-38.605-0.78516-14.148-0.46484-28.34 0.96094-42.441 0.91016-8.6484 0.89453-17.406 1.043-26.117l-0.003906 0.003906c-0.019531-6.5391 0.5-13.066 1.5508-19.52 0.97656-5.3438 1.4336-10.797 1.8711-16.223 1.1172-15.762 3.8633-31.363 8.1875-46.559 0.44922-2.1797 0.72266-4.3867 0.82031-6.6094-2.8008-1.2109-5.2656-2.1875-7.6562-3.3242v0.003906c-4.6641-1.9375-7.7266-6.4727-7.7734-11.523-0.066406-1.625-0.011719-3.2539-0.011719-3.3594h0.003906c4.3281-17.328 16.75-31.508 33.359-38.082 2.0078-2.8164 4-6.0859 6.4531-8.9609v0.003906c2.3438-3.2461 5.5273-5.7891 9.207-7.3633 3.6797-1.5742 7.7188-2.1211 11.684-1.5742l10.965 5.9609c1.4844 0.14062 2.9766 0.12109 4.457-0.0625 2.6484-0.55859 5.1797-1.7031 7.832-2.2148v0.003906c10.562-2.6289 21.367-4.1484 32.242-4.543 12.52 0.20703 25.051 0.13281 37.574-0.089843 9.293-0.097657 18.461 2.1719 26.637 6.5977 1.4453 0.75 2.9414 1.3984 4.6797 2.2188v-0.003906c3.9062-1.7422 7.9102-3.2461 12-4.4961 5.2656-1.3086 10.715-1.8672 16.094-2.75l22.711 1.9922c3.6406 1.4219 7.1914 2.793 10.723 4.1992l-0.003906-0.003906c5.3594 1.8086 10.129 5.0234 13.82 9.3086 3.6875 4.2852 6.1562 9.4805 7.1523 15.047l-2.8828 13.691c4.4062 9.6836 5.543 20.535 3.2344 30.922l-8.2617 10.59c6.8672 12.676 9.9023 27.078 8.7344 41.449-0.71484 10.305-0.67188 20.637-2.1016 30.938-1.1953 8.5977-0.94531 17.395-1.3281 26.105-0.18359 10.344-0.92188 20.672-2.2188 30.941-0.82031 5.3672-0.83594 10.855-1.2969 17.48l-7.4531 14.941-12.102 11.281c1.293 3.3281 4.6602 3.9219 7.2656 5.4141h-0.003906c6.9023 3.8047 12.324 9.8203 15.387 17.082l1.3086 15.141c3.6602 7.0586 6.457 14.531 8.3242 22.258-0.27734 3.5273-1.7695 6.8516-4.2266 9.4023-2.4531 2.5508-5.7188 4.1719-9.2344 4.5859-13.285 3.125-27.039 3.7461-40.551 1.8281-5.8984-1.1602-11.965-1.1875-17.871-0.082032-15.648 2.1719-31.434 3.1758-47.23 3-6.5273 0.19141-13.047 0.71484-19.578 0.89453-5.9805 0.16406-11.977 0.20312-17.953 0.023437-3.2461-0.097656-6.4727-0.92188-9.7227-1.125-6.5195-0.41016-13.047-0.61719-20.219-0.9375zm141.27-134.53 3.0078-3.4336c3.207-0.007813 6.2656-1.3398 8.4492-3.6875 0.65625-0.61719 0.77734-1.8047 1.1406-2.7266 1.4883 0.32031 2.9688 0.60938 3.957-1.0156l-1.1953-0.52734h0.003906c-0.84375 0.60547-1.6484 1.2617-2.4062 1.9688-3.9453 0.70312-7.4102 3.0273-9.5547 6.4102l-3.2852 3.2539-0.69141 0.70703zm-157.05 49.688c-4.9844 4.1758-9.9961 8.3203-14.949 12.531-6.0977 4.6875-10.66 11.086-13.098 18.383-3.0195 10.559-2.875 21.773 0.41016 32.254 0.90234 3.2305 3.3633 5.793 6.5547 6.8242 4.5078 1.7578 9.4609 2.0234 14.133 0.76562 1.0078-2.6094-0.57031-4.3203-1.3594-6.1914h0.003906c-3.9414-10.211-5.5781-21.16-4.8008-32.078 0.21875-3.8203 1.2891-7.543 3.1328-10.898 1.0078-1.9844 3.9766-1.9766 6.4648 0.050781v-0.003906c-2.6367 12.102-1.8906 24.691 2.1602 36.395l7.1328 8.2656-0.003907 0.003906c5.6836 2.9492 11.938 4.6328 18.332 4.9258 2.7266-0.019532 5.4492 0.26953 8.1133 0.86328 12.883 2.3711 26.035 2.8906 39.066 1.5352 14.148-1.0312 28.293-1.1484 42.434-1.8438 2.7109 0.27344 5.4492-0.19141 7.9219-1.3398-0.27734-0.98828-0.23828-2.3438-0.89453-2.918h-0.003907c-3.3047-2.8984-7.5469-4.5039-11.945-4.5156-7.625-0.16797-15.254-0.33594-22.883-0.36719-14.168-0.0625-28.34-0.070312-42.508-0.019531v-0.003906c-8.2383 0.35938-16.352-2.1289-22.973-7.0469-3.7188-5.1367-10.992-10.027-10.367-19.703l3.8164-2.0312h0.003906c3.1953 2.3438 5.6562 5.5508 7.0898 9.2461 1.8828 3.4219 4.7656 6.1914 8.2656 7.9258 6.6562 2.2852 13.656 3.3945 20.691 3.2852 12.531-0.058594 25.062 0.085938 37.594 0.023438 10.16-0.27734 20.328-0.015626 30.461 0.79297 7.6562 3.1094 14.355 8.1797 19.43 14.699 4.4023-1.1953 5.5039-4.7578 6.1055-8.6367 0.32812-2.7227-0.09375-5.4844-1.2266-7.9805-1.1328-2.4961-2.9297-4.6367-5.1953-6.1797-6.0898-3.7656-13.344-5.1914-20.406-4.0078l-4.8789 0.51172c-15.176 1.6289-30.426 2.4609-45.688 2.4883-5.4375 0.13281-10.902-0.18359-16.332-0.57031v0.003906c-7.1055-0.58594-13.906-3.1523-19.629-7.4102-1.3477-0.92188-2.4336-2.1719-3.1562-3.6367-0.55469-1.4844-0.6875-3.0938-0.38672-4.6523 0.11328-0.64453 1.5664-1.0625 2.7734-1.8086l10.531 6.4375c6.3516 0.94141 12.254 2 18.199 2.625 3.7812 0.39453 7.5938 0.4375 11.383 0.14062 17.375-1.3672 34.734-2.9062 52.777-4.4414 2.5586 0.52734 5.7656 1.1289 8.9453 1.8555 6.2656 0.9375 11.988 4.0977 16.125 8.9023s6.4102 10.934 6.4062 17.27c0.23828 2.6562 0.41016 5.3164 0.62891 8.1953l0.003906 0.003906c7.582 2.7812 15.789 3.3906 23.699 1.7578 2.4414-1.1211 4.0703-3.4961 4.2344-6.1797-2.3008-5.2344-5.0742-11.105-7.4688-17.125-2.6875-6.7539-0.14062-14.137-2.0898-20.926-4.3281-5.7227-4.3047-5.7539-13.547-9.5625h-45.266c-26.574 9.8516-55.859 9.4844-82.18-1.0273-4.5234 0.42188-8.3125 0.89453-12.113 1.0977-6.0625 0.69922-12.051-1.8398-15.762-6.6875l-4.3125-10.652 1.0938-0.4375zm10.359 3.7227c2.1992 1.1523 4.5078 2.0859 6.8906 2.7812 2.1484 0.33594 4.3438 0.23047 6.4531-0.30078 3.1211-0.88281 6.1914-1.9414 9.1914-3.1758 7.4141-3.4375 15.266-5.8398 23.336-7.1289 13.02-1.8008 26.281-0.50391 38.707 3.7812 13.867 5 28.617 7.1133 43.332 6.207 7.418 0.082031 14.668-2.207 20.691-6.5352 6.0234-4.3281 10.508-10.465 12.797-17.523 0.39453-1.0156 0.52734-2.1172 0.38281-3.1992-0.31641-0.90234-0.79297-1.7422-1.4023-2.4805-4.6133 0.86719-6.9141 5.1445-10.684 7.2578-3.793 2.1289-7.5625 4.293-9.7539 5.543v-0.003906c-4.0742 1.6836-8.5273 2.2461-12.898 1.6367-4.3672-0.60937-8.4922-2.375-11.953-5.1094-3.6719-2.6133-6.5781-6.1641-8.4102-10.281-1.8359-4.1172-2.5312-8.6484-2.0195-13.125 1.457-3.3281 3.1367-7.3398 4.9453-11.293 1.793-3.9141 5.7578-6.5977 6.4609-11.418-3.5781-1.1719-7.0625-2.5977-10.43-4.2773-4.1992-2.0586-7.6367-5.4023-9.8125-9.543-2.1797-4.1445-2.9805-8.8711-2.2891-13.5 0.29688-4.3633 1.4688-8.625 3.4492-12.527 5.0039-9.7031 12.238-18.082 21.105-24.453 12.586-8.6484 26.469-15.234 41.129-19.516 1.8438-0.61328 3.6484-1.3281 5.4141-2.1406 1.707-3.2852 1.1719-7.293-1.3438-10.012l-13.938-5.7109v-0.003906c-6.9609-5.8281-12.457-13.203-16.055-21.539-2.6367-7.0117-6.8086-13.348-12.207-18.543l-8.3516-5.0625c-5.957-5.1836-9.6406-12.5-10.266-20.375-0.54687-2.0977-1.457-4.0859-2.6875-5.8789-2.6914-0.74609-5.4336-1.3125-8.207-1.6875-6.5156-0.44141-13.059-0.50781-19.586-0.82031-7.0742-0.03125-14.141-0.48047-21.164-1.3477-9.168-1.3047-18.441-1.7383-27.695-1.293-19.164 1.3633-37.426 8.6875-52.215 20.949-2.9023 2.4766-5.4297 5.3594-7.5117 8.5547-3.957 5.1992-7.7266 10.543-11.527 15.859-4.9336 7.1992-8.543 15.223-10.656 23.691-5.0742 22.844-8.3711 46.047-9.8633 69.402-0.79688 7.0156-0.44141 14.16-0.70703 21.242v-0.003906c-0.015625 4.3633-0.29297 8.7188-0.83203 13.047-1.8867 19.543-1.25 39.25 1.8945 58.629 0.33594 3.2695 1.5156 6.3945 3.4219 9.0742 2.1133 3.3125 6.0312 5.0117 9.8945 4.2891 3.0039-0.39844 5.668-2.1445 7.2305-4.7461l4.875-13.105 4.4023-1.3438 2.3203 2.5312c1.1406 4.1641-1.5664 8.8086 1.7188 12.613l-0.007812 0.003906c0.94531 0.49609 1.9688 0.82812 3.0234 0.97656 1.625-0.09375 3.2266-0.41797 4.7578-0.96094 1.0391-0.35547 1.9688-0.96875 2.7031-1.7852 6.5312-7.082 11.922-15.137 15.98-23.879l-4.5117-13.887c0.039062-4.6523 1.7305-9.1406 4.7695-12.664 7.6641-9.2969 17.828-16.207 29.293-19.91 13.887-5.0977 28.984-5.8945 43.332-2.2812 4.2148 1.0977 8.1133 3.1797 11.375 6.0742 6.3125 5.5078 10.492 13.059 11.805 21.336-0.95703 2.8359-1.9375 5.9375-3.043 8.9805-2.3633 6.1602-6.7852 11.312-12.52 14.578-5.5703 3.4609-11.777 5.7695-18.254 6.793-8.125 1.0273-16.035 3.3086-23.457 6.7695-1.1406 0.30078-2.3203 0.41406-3.4961 0.33594l-2.0156-3.6484c2.3867-4.5 6.5703-7.7734 11.508-9.0156 6.4531-2.1602 13.184-3.3945 19.984-3.6602 8.1445-2.3828 15.266-7.4141 20.227-14.297 1.7305-4.4102 1.7031-9.3203-0.082031-13.707-5.832-8.4492-15.434-13.5-25.699-13.516-18.199-1.2031-36.059 5.332-49.18 17.996-1.8984 1.9375-3.4453 4.1914-4.5664 6.6602-0.62109 0.96875-0.78125 2.1562-0.44531 3.2539s1.1406 1.9883 2.1953 2.4414c5.2734-4.3281 10.602-8.9375 16.18-13.215h-0.003906c5.8828-3.7773 12.363-6.5352 19.164-8.1602 7.7539-0.71094 15.574-0.14453 23.145 1.6797 2.8633 1.5938 5.1836 4.0078 6.6602 6.9336 1.2812 3.5781 1.2188 7.5039-0.17188 11.043-6.4844 7.5664-8.8086 9.2812-15.695 10.672-5.8633 1.1836-11.762 2.3516-17.695 2.9766v0.003906c-4.8594 0.69531-9.5742 2.168-13.969 4.3594-9.0938 4.1992-15.441 12.719-16.867 22.633zm167.41-175.88c3.7617-3.6992 5.0508-9.2383 3.3047-14.215-1.9141-6.2148-4.2227-12.305-6.168-17.895 0.47656-3.9688 0.81641-7.2188 1.2695-10.453h0.003906c0.78516-3.8164 0.59375-7.7695-0.55078-11.492-1.8828-3.8867-4.8398-7.1523-8.5234-9.4102-3.7617-2.2539-8.0039-3.582-12.379-3.8789-8.1445-0.79297-16.352-0.63672-24.461 0.46094-1.5234 0.37891-3.0039 0.91406-4.4219 1.5977-3.1055 7.0977-3.6953 9.6484-2.8867 12.508 1.4219 4.1562 4.1289 7.7578 7.7305 10.277 0.83594 0.67188 1.9883 0.95312 2.8203 1.6289h-0.003906c2.6016 1.9336 5.0586 4.0508 7.3555 6.3359 4.5195 4.7344 8.1797 10.219 10.82 16.207 2.4727 7.1992 6.8008 13.621 12.543 18.617 4.2461 2.3203 9.4062 2.2109 13.547-0.28906zm-47.496 102.02v-0.003906c6.4961-2.1328 12.609-5.2891 18.109-9.3438 7.7109-6 16.129-11.035 25.066-14.984 0.44922-0.16797 0.51953-1.5664 0.55859-2.4062 0.007812-0.17578-0.94141-0.62109-1.3906-0.55859h0.003906c-6.8984 1.4922-13.602 3.7695-19.98 6.7852-4.9688 2.207-10.258 3.6094-15.668 4.1562-2.1562 0.039063-4.293-0.40625-6.2578-1.2969-2.543-1.207-4.2305-3.6992-4.4062-6.5117-0.035156-2.707 0.9375-5.3359 2.7305-7.3672 4.2891-4.957 9.8477-8.6562 16.078-10.699 10.289-3.4219 20.445-7.2617 30.48-10.863 2.3086-2.4883 3.293-5.9258 2.6484-9.2578-0.29297-1.3242-1.75-2.3945-2.8594-3.8164-14.391 3.3242-28.023 9.3359-40.188 17.711-10.852 6.8477-19.008 17.234-23.09 29.398l0.69531 7.7656h0.003906c3.6172 6.4023 10.145 10.621 17.465 11.289zm43.777-14.344c-7.9844 3.1211-15.387 7.5625-21.906 13.137-8.5938 6.6719-16.176 14.559-22.512 23.406-3.6641 4.2734-5.9531 9.5508-6.5703 15.148 1.0352 4.1367 3.3438 7.8438 6.6016 10.59 3.2578 2.75 7.3008 4.4023 11.551 4.7266 11.488-5.1836 22.109-12.105 31.488-20.527 0.90625-1.9922 1.6836-4.043 2.332-6.1367 0.41406-1.668-0.41406-3.0508-2.5078-3.6484-10.281 3.3711-15.68 14.723-26.207 17.457-5.8203-0.90625-7.2734-4.7227-7.6484-10.438 1.0312-2.7266 2.3438-5.3398 3.918-7.7891 5.1914-7.0078 11.73-12.906 19.23-17.352 4.6602-2.6875 9.0977-5.75 12.973-8.2188 1.6875-4.0078 2.4219-7.0664-0.74219-10.355zm-227.5-106.81c1.9492-0.92188 3.75-2.1289 5.3438-3.5781 6.3594-7.9883 12.273-16.32 17.715-24.957-1.0664-1.6289-1.6289-3.3906-2.8086-4.0469-1.4023-0.72656-3.043-0.82031-4.5195-0.26172-10.602 5.4688-18.773 14.695-22.922 25.879-0.10156 0.53516-0.10937 1.082-0.023437 1.6211 0.65234 2.9453 2.6094 4.5 7.2148 5.3438zm11.062 209.82c-1.7461 4.3945-3.8242 8.7891-5.2305 13.391h0.003906c-1.707 5.707-2.1641 11.715-1.3438 17.617 0.29297 3.8281 2.3438 7.3047 5.5508 9.418 0.72656 0.46094 1.9023 0.20312 2.9023 0.28125l0.003907-0.003906c1.1367-2.4609 1.4844-5.2148 0.99219-7.8828-0.28125-8.6445 1.0859-17.266 4.0234-25.402 1.1875-4.0703 3.5312-7.7891 5.1133-11.766 0.26172-0.65625-0.72656-1.8047-1.2188-2.9102h-0.003906c-1.4492 0.62109-2.8516 1.3438-4.2031 2.1602-2.1875 1.5273-4.2422 3.2656-6.5898 5.0977zm90.152-8.207c8.2148 2.2344 16.578 3.8828 25.023 4.9453 7.707 0.39453 15.402-0.9375 22.527-3.8984-1.2812-1.0312-2.2695-2.3672-3.5586-2.7773-8.6133-3.2031-17.734-4.8281-26.926-4.7969-6.3086-0.054688-12.406 2.2773-17.066 6.5273zm93.855-106.33c9.7617-4.0312 19.734-7.5195 29.883-10.441 2.0039-0.73828 3.75-2.0469 5.0156-3.7695 1.1406-1.3008 0.62109-2.8438-1.8164-3.7852-9.5586 3.5078-19.621 7.1094-29.594 10.941v0.003906c-1.9688 0.85547-3.7344 2.1133-5.1836 3.6953-1.3164 1.3555-0.68359 2.6914 1.6992 3.3555zm-77.773 48.906c-6.0117-0.5-11.938-2.9102-16.398 2.4219v-0.003906c-0.83594 3.5 1.0625 7.0742 4.4297 8.3438 9.5508-0.10156 9.5508-0.10156 14.816-5.2227zm-89.285-190.27c-0.42969 1.1953-0.74609 2.4219-0.94531 3.6758-0.085937 2.0859-0.12891 4.2969 2.8359 4.5 10.191-6.6562 10.191-6.6602 11.742-11.73-5.1445-2.8164-9.0742-0.37891-13.633 3.5547zm63.34 203.46h0.003907c1.1289-2.4648 0.66016-5.3672-1.1836-7.3555-3.8906-2.207-5.7578 0.11328-7.2578 3.2461 1.9219 6.6211 2.5938 6.9258 8.4414 4.1094zm-17.059 6.1016c-2.7734-1.1797-2.7656-1.1641-6.1875 3.4141l0.003906 0.003906c2.6094 0.45703 5.1836-0.96484 6.1836-3.418z"/>
  <path d="m393.09 200.72 11.148-5.0391c3.6602 0.53125 4.5508 2.1602 4.2344 4.7852-4.5273 8.7656-14.113 9.0234-22.547 12.898l-6.4531 14.516c-8.4297 10.539-19.617 18.531-32.32 23.09-3.9609 0-9.3828-0.17969-14.785 0.050781-5.4297 0.23047-10.148-4.1328-16.383-2.2148h0.003907c-3.8711 10.125-6.8164 20.582-8.8008 31.238l-3.6367 2.8828-3.8789-3.2461c0.25781-5.4219 1.1211-10.797 2.5781-16.023 1.6133-5.1836 3.1719-10.406 4.3203-15.707h-0.003907c0.30859-2.4805 0.33984-4.9844 0.097657-7.4688-2.1797-4.1328-6.6055-6.5703-11.258-6.2148-7.6992-0.1875-15.211 2.3828-21.176 7.2461-6.2578 5.207-12.246 10.754-18.258 16.25-2.3047 2.4844-5.3906 4.1055-8.7461 4.5938l-3.9219-2.5664c0.054687-1.5977 0.27344-3.1797 0.65234-4.7305 1.5898-4.0703 4.1484-7.6953 7.4531-10.555 5.1836-4.8008 10.48-9.4805 15.668-14.27 3.1836-2.9375 6.2578-5.9961 8.5859-8.2383l0.003906-0.003906c5.418-15.645 15.699-29.148 29.344-38.535 10.77-6.3477 23.273-9.1133 35.719-7.9023 6.6758 1.7695 12.918 4.8828 18.348 9.1484 4.7188 3.6641 9.5312 7.207 14.352 10.738 5.543 4.3984 12.66 6.3086 19.66 5.2773zm-100.95 21.234c4.1367 1.2422 8.1875 2.7578 12.121 4.5391 4.2695 2.2461 8.0508 5.4023 12.164 7.9688h0.003907c2.6992 1.8008 5.5781 3.3203 8.5898 4.5352 10.199 4.2578 21.855 3.1055 31.023-3.0703 6.2656-4.2656 11.801-9.5117 16.395-15.543 3.1055-3.5156 3.9688-8.4805 2.2383-12.84-6.6797-5.9883-13.875-11.371-21.504-16.098-2.8008-1.6172-5.7539-2.9609-8.8125-4.0195-0.74219-0.28516-1.8711 0.44922-2.8555 0.73047l-3.4258 13.824-9.2656 8.6289v0.003906c-6.8047 2.8633-14.566 2.3555-20.941-1.375-1.8086-1.1875-3.7031-2.2422-5.6641-3.1602-1.6211-0.41016-3.2852-0.625-4.9609-0.64062-4.043 4.4883-5.9102 10.527-5.1055 16.516zm14.336-24.977c2.0078 2.7812 4.8008 4.9023 8.0195 6.0938 3.2227 1.1875 6.7227 1.3945 10.059 0.58984 7.0859-6.6094 7.6562-9.0234 3.5703-15.121-4.2031-0.99609-8.6211-0.47656-12.477 1.4648-3.3008 1.6406-7.3516 2.4336-9.1719 6.9766z"/>
  <path d="m315.5 281.2c-2.1289-4.9336-0.52734-10.688 3.8398-13.812l2.0078 0.039062c0.83203 0.55469 1.6172 1.1719 2.3594 1.8477-1.0547 8.375-1.9258 9.6875-8.207 11.926z"/>
  <path d="m436.98 147.91c-5.7305-5.2656-14.805-5.6602-18.273-14.887h0.003906c-0.39062-1.918 0.38281-3.8828 1.9766-5.0195 1.6523 1.0859 3.5273 2.1211 5.1719 3.4453h0.003906c1.9414 1.8945 4.3672 3.2227 7.0078 3.8477 5.2227 1.1602 9.6992 4.5039 12.293 9.1836 0.72266 3.125 1.7148 7.3164 2.6523 11.523 0.94141 4.2188 1.8281 8.4453 2.8008 12.977l-3.7344 2.457c-7.3398-5.9297-6.4844-14.883-9.9023-23.527z"/>
 </g>
</svg>
