<?xml version="1.0" encoding="UTF-8"?>
<svg width="700pt" height="700pt" version="1.1" viewBox="0 0 700 700" xmlns="http://www.w3.org/2000/svg">
 <g>
  <path d="m298.91 221.39c-0.48437-6.6953-6.8828-11.469-8.332-17.98-0.16016-0.72656-1.3203-0.59766-1.1562 0.13281 0.83594 3.7461 2.3516 7.4609 2.9727 11.273-10.52 5.8047-23.023 3.9219-33.852 8.5469l-0.003906 0.003906c-12.039 7.418-19.793 20.156-20.852 34.258-3.6953 15.418-5.3086 31.238-8.7969 46.695-3.5352 15.656-9.8906 30.516-13.152 46.25v-0.003907c-3.9922 15.988-1.8164 32.895 6.0977 47.352 2.0859 3.4961 7.9453 0.11328 6.2266-3.5508-12.543-26.793 3.4023-56.637 10.312-82.68 3.7891-14.281 5.5-28.973 8.1914-43.469v-0.003906c1.3242-7.3203 3.0781-14.559 5.2578-21.672 1.3359-5.9297 4.5391-11.27 9.1445-15.234 10.199-5.3594 20.797-9.9297 31.695-13.664v0.14844c0.625 3.8516-0.54688 7.7812-3.1797 10.66-2.582 1.9102-0.15234 6.4688 2.8594 5.0117v0.003906c4.5859-2.1641 7.2461-7.0508 6.5664-12.078z"/>
  <path d="m334.57 360.05c-8.7539 0.41406-17.363 2.3984-25.418 5.8555-8.0547 3.707-15.695 8.4609-23.359 12.898v-0.003906c-8.2578 4.7578-16.898 8.8242-25.832 12.148-4.3945 1.6445-8.8711 3.1172-13.371 4.4609-4.9141 1.8555-9.9297 3.4336-15.016 4.7344-3.3945 0.60547-2.8438 5.8477 0.62109 5.3594 4.8711-0.68359 9.75-0.38281 14.633-1.4102h-0.003906c4.7773-1.0156 9.4883-2.3086 14.113-3.8711 2.4336-0.81641 4.8398-1.6992 7.2148-2.6445-3.8555 6.7852-6.2422 14.301-7.0117 22.066-0.51562 5.3125-0.16016 10.676 1.0508 15.879 1.582 4.9219 3.9453 9.5586 7.0039 13.73 1.3086 2.0898 4.2969 0.066407 3.5859-2.0469h-0.003906c-1.1406-4.5312-1.9062-9.1445-2.2891-13.801-0.74219-4.3203-1.1602-8.6914-1.25-13.074-0.31641-8.6875 1.3555-17.336 4.8906-25.277 4.457-2 8.8164-4.2188 13.082-6.6523 7.7461-4.4219 14.973-9.625 22.57-14.285h-0.003906c7.5508-5.5 16.023-9.6055 25.016-12.125 0.50781-0.09375 0.85547-0.5625 0.79297-1.0742-0.058594-0.51172-0.5-0.89062-1.0156-0.86719z"/>
  <path d="m335.93 329.48c-8.8516-0.14844-17.676 0.92969-26.23 3.2031-3.7773 0.80078-7.5625 1.5508-11.348 2.3203v-0.003906c-3.082-0.74219-6.0547-1.8906-8.8359-3.4102-5.5195-2.5352-10.195-6.5938-13.48-11.699s-5.043-11.047-5.0625-17.117c-0.078125-1.9727-3.125-1.6094-3.0469 0.35156-0.27734 5.5625-0.18359 11.137 0.29297 16.688 0.80469 4.7773 3.082 9.1836 6.5117 12.605 2.4336 2.4766 5.2969 4.4883 8.4492 5.9375l-1.418 0.35156c-8.6641 2.0117-17.219 4.4648-25.633 7.3438-7.9492 3.2734-15.516 7.4141-22.562 12.34-1.8633 1.207 0.22266 3.8789 2.0859 2.7266v0.003906c7.3984-3.8711 15.344-6.582 23.562-8.0352 8.3164-2.1523 16.629-4.3516 24.902-6.668 16.988-6.0742 34.273-11.277 51.793-15.598 0.71094-0.125 0.82031-1.2891 0.019531-1.3398z"/>
  <path d="m415.81 371.4c-5.9844-0.54688-11.875-1.8555-17.531-3.8906-5.3594-1.4023-10.895-2.0352-16.434-1.8789-12.25 1.1875-24.617 0.28125-36.562-2.6797-1.0742-0.37891-1.7734 1.2539-0.69531 1.6367 5.7891 2.0508 11.121 5.4219 17.035 7.168 6.0117 1.4336 12.215 1.9219 18.379 1.457 6.3516-0.26953 12.715 0.097656 18.996 1.1016 5.5938 1.6875 11.539 1.8594 17.223 0.49609 1.5703-0.57812 1.3906-3.3477-0.41016-3.4102z"/>
  <path d="m426.01 366.3c-5.6836-2.4844-11.512-4.6289-17.449-6.4219-2.6133-0.94531-5.2344-1.9922-7.8906-2.8008v0.003906c-3.4297-0.78125-6.7773-1.8945-9.9922-3.3203-2.0586-1.0938-3.457 2.2383-1.4141 3.3281 2.9922 1.5938 5.6016 3.8555 8.5859 5.5v0.003906c2.8438 1.5117 5.8477 2.6875 8.9609 3.5078 6.0859 2.0469 12.547 2.7344 18.93 2.0195 0.41797-0.058594 0.75-0.39062 0.8125-0.80859 0.066407-0.42188-0.15625-0.83203-0.54297-1.0117z"/>
  <path d="m432.11 361.98c-5.7891-3.1289-11.59-6.1914-17.461-9.1602v-0.003906c-6.2266-2.7344-12.219-5.9805-17.906-9.707-1.4883-1.0977-3.2695 1.1367-1.7852 2.2617 5.3008 4.5352 10.961 8.6328 16.926 12.25 6.1289 3.25 12.777 5.3984 19.648 6.3438 0.51172 0.0625 0.99219-0.25391 1.1367-0.74609 0.14453-0.49609-0.09375-1.0195-0.55859-1.2383z"/>
  <path d="m421.53 350.7c-5.5469-4.5781-10.031-10.145-15.828-14.492-4.6445-3.8789-10.012-6.8047-15.789-8.6055-13.688-1.9141-27.539-2.4297-41.328-1.5273-1.8398-0.074219-2.2695 2.7773-0.41797 2.8516 6.5859 0.26953 13.164 1.25 19.73 1.9102 6.2578 0.12891 12.5 0.70703 18.68 1.7344 6.0352 2.0625 11.637 5.2383 16.504 9.3633 5.5469 3.9023 11.75 6.4414 17.359 10.176v-0.003906c0.39062 0.30469 0.94922 0.23047 1.25-0.15625 0.30078-0.39062 0.23047-0.94922-0.16016-1.25z"/>
  <path d="m310.3 466.1c5.75 2.332 11.633 4.3164 17.617 5.9453 2.6367 0.875 5.2852 1.8516 7.9648 2.582 3.4492 0.69141 6.8242 1.7109 10.082 3.0469 2.0859 1.0391 3.3945-2.3359 1.3242-3.3672-3.0352-1.5117-5.6992-3.6953-8.7344-5.2656l-0.003906 0.003907c-2.8828-1.4336-5.918-2.5312-9.0508-3.2695-6.1406-1.8789-12.621-2.3906-18.98-1.5-0.41797 0.070312-0.74219 0.41016-0.79297 0.83203-0.046875 0.42188 0.18359 0.82422 0.57422 0.99219z"/>
  <path d="m304.33 470.59c5.8711 2.9727 11.754 5.875 17.703 8.6836 6.3008 2.5664 12.375 5.6484 18.164 9.2188 1.5156 1.0547 3.2383-1.2227 1.7227-2.3125v0.003906c-5.418-4.3906-11.188-8.332-17.246-11.789-6.2148-3.082-12.922-5.0469-19.816-5.8086-0.51172-0.050782-0.98828 0.27734-1.1172 0.77344-0.13281 0.5 0.11719 1.0195 0.58984 1.2305z"/>
  <path d="m315.1 481.64c6.125 4.3008 11.301 9.7422 17.723 13.77v-0.003906c5.0898 3.7344 10.941 6.293 17.137 7.5039 14.699 0.52344 29.41-0.46875 43.902-2.9609 1.9492-0.16797 2.1797-2.8633 0.20312-2.8008-7.0312 0.21094-14.191 0.31641-21.25 0.35938-6.6055 0.58984-13.25 0.65234-19.867 0.18359-6.4688-1.5859-12.586-4.3555-18.039-8.1758-6.1641-3.4961-12.617-6.1172-18.848-9.3047-1.043-0.54297-1.9453 0.73828-0.96094 1.4297z"/>
  <path d="m392.74 458.21c-6.9219-3.5391-14.258-6.1953-21.844-7.8984-3.5664-0.60938-7.1719-0.99219-10.789-1.1484-4.1172 0.16016-8.2344-0.30469-12.207-1.3828-1.418-0.53906-3.0117 0.14062-3.6016 1.5352-0.59375 1.3984 0.023438 3.0117 1.3945 3.6562 3.1992 1.6836 6.6055 2.9336 10.133 3.7266 3.9531 0.6875 7.9766 0.79688 11.938 1.4492 7.9258 1.3008 15.688 3.4727 23.48 5.3945 3.1953 0.78516 4.2266-4.0273 1.4961-5.332z"/>
  <path d="m376.04 464.54c-4.8984-0.87109-9.8477-1.4297-14.82-1.6797-4.6016-0.84375-9.1133-2.1328-13.469-3.8477-4.0938-1.6484-8.2773-3.0664-12.527-4.2461-4.5156-0.80859-9.1445-0.67578-13.602 0.39062-1.1328 0.21094-1.8984 1.2773-1.7344 2.418 0.16016 1.1406 1.1953 1.9492 2.3398 1.832 4.5938 0.22656 9.1055 1.2852 13.32 3.1172 4.1016 1.2773 8.0781 2.9102 12.152 4.2812 3.9258 1.4258 8.0586 2.2031 12.234 2.2969 5.1289-0.99219 10.305-1.7266 15.512-2.1992 1.332 0.14453 1.9727-1.9727 0.59375-2.3633z"/>
  <path d="m485.61 379.96c-4.7266-26.465-11.359-52.555-19.836-78.066-5.5664-23.461-3.1367-52.457-20.945-71.172-10.055-8.6289-22.211-14.445-35.242-16.855-5.7617-1.6797-11.32-3.9883-16.574-6.8867-2.7891-1.168-5.3711-2.7852-7.6367-4.7852-1.3633-1.4336-2.5312-3.043-3.4648-4.7852 7.5898-16.227 10.816-34.152 9.3516-52.012-0.007813-1.2773-2.1719-1.3125-2.25-0.035156v0.003906c-0.76953 9.418-2.4336 18.742-4.9727 27.848-1.6055 8.5898-4.7578 16.812-9.3086 24.273-2.1953 3.3242-5.2617 5.9844-8.8594 7.6953-3.5977 1.7109-7.5977 2.4062-11.562 2.0156-3.9844-0.41797-7.8086-1.7734-11.164-3.9609-3.4727-2.5469-6.5117-5.6367-9-9.1523-0.14453-0.1875-0.41406-0.22266-0.60156-0.078125-0.1875 0.14453-0.22266 0.41406-0.082031 0.60156 4.8555 6.4883 9.9609 16.441 18.293 18.887 4.4531 0.96484 9.082 0.69141 13.387-0.79688 4.3047-1.4844 8.1211-4.1211 11.031-7.625 1.5586-1.6602 2.9805-3.4414 4.2539-5.332 1.4805 3.7578 3.5977 7.2305 6.2578 10.266 2.2773 7.293 2.8203 15.02 1.5859 22.562-1.7578 10.289-5.707 20.082-11.582 28.711-2.832 4.5938-5.8672 9.043-8.6875 13.641-1.9531 4.207-5.1914 7.6875-9.2461 9.9375-5.2656 2.1484-10.512-3.7266-13.762-7.1836-3.8164-4.0195-7.2812-8.3594-10.352-12.973-1.3672-2.0938-4.9688-0.070313-3.8516 2.1992h-0.003907c4 8.8906 10.391 16.492 18.465 21.953 3.7734 2.0781 8.1953 2.6562 12.379 1.6133 4.1836-1.043 7.8203-3.625 10.176-7.2344 6.8594-7.6797 12.57-16.309 16.969-25.617 4.4883-8.7266 6.9141-18.371 7.0898-28.184-0.007813-5.0078-1.2109-9.9414-3.5078-14.391l2.3086 1.4766h-0.003907c10.207 4.4492 20.652 8.3359 31.285 11.637 24.414 10.703 24.93 38.125 28.523 60.941 4.0781 25.898 15.441 49.859 20.832 75.426v0.003907c2.9336 12.703 3.4648 25.844 1.5664 38.742-2.4492 12.383-7.5898 24.078-15.055 34.258-7.4727 10.887-15.637 21.281-24.445 31.117-4.2031 4.8633-8.8125 9.3594-13.781 13.441-2.2148 1.7539-4.3203 3.9219-6.6641 5.4727-2.9336 1.7656-6.0586 3.1914-9.3164 4.2578-1.7812 0.66016-0.67969 3.3594 1.1016 2.7266 10.805-3.7227 20.789-9.4883 29.414-16.98 8.7656-8.0234 16.715-16.895 23.73-26.488 8.0898-9.7734 14.629-20.738 19.383-32.504 4.2852-12.391 5.7773-25.574 4.375-38.609z"/>
  <path d="m271.66 269.29c-1.332-5.6484-3.9609-10.906-5.5547-16.488l-0.70703 0.17969c2.3906 10.344 2.4727 21.082 0.24219 31.461-0.16016 1.3555 0.69141 2.6211 2.0039 2.9922 1.3125 0.36719 2.6992-0.27734 3.2656-1.5156 1.8555-5.3555 2.1133-11.129 0.75-16.629z"/>
  <path d="m434.41 288.16c-2.8203-6.5508-3.8086-13.742-2.8594-20.809 0.28516-1.2539-1.6133-1.4688-1.9414-0.28516v0.003906c-1.1602 11.484-1.2812 23.055-0.35938 34.562-0.44922 4.9375-2.1289 9.6836-4.8828 13.805-2.6523 4.4258-6.1602 8.2734-10.316 11.328-2.7812 1.7812-0.11328 6.3086 2.8633 5.0156h-0.003906c5.3125-1.9062 10-5.2344 13.555-9.6211 3.3477-4.6289 5.4961-10.023 6.2422-15.691 0.57031-6.1953-0.21094-12.445-2.2969-18.309z"/>
  <path d="m448.02 371.57c-2.2227 4.1445-4.6367 8.2266-6.6211 12.504l-0.59375 1.3438c-2.0156-3.8164-4.3945-7.4258-7.1055-10.781-0.72266-0.99219-2.207 0.15234-1.5078 1.1562v-0.003906c2.6484 4.6797 4.0391 9.9688 4.0312 15.348 0.1875 2.0273 0.37891 4.1445 0.48047 6.2656-2.7617 8.4766-5.5 16.965-8.207 25.461v-0.003907c-2.25 7.8242-5.2773 15.398-9.0312 22.617-1.8711 3.3281-4.0312 6.4805-6.4609 9.4219-2.4062 3.3789-5.5273 6.1875-9.1445 8.2188-0.46094 0.21094-0.67578 0.75-0.48438 1.2188 0.1875 0.47266 0.71484 0.71094 1.1953 0.54297 3.6797-1.1953 7.2227-2.7773 10.562-4.7227 3-2.0469 5.6523-4.5625 7.8477-7.4492 5.0703-7.2852 8.9297-15.34 11.438-23.852 3.1211-9.2422 6.0742-18.539 9.0508-27.828 1.457-4.5469 3.1445-9.0938 4.1758-13.758 1.1055-4.9883 1.5195-10.141 2.1914-15.191v0.003907c0.054688-0.46875-0.23828-0.90625-0.69141-1.0352-0.45312-0.125-0.92969 0.09375-1.125 0.52344z"/>
  <path d="m436.12 329.21c0.054687-1.3633-2.0508-1.6953-2.1289-0.30859-1.1328 14.055 0.94141 28.188 6.0664 41.328 0.34766 0.78516 1.168 1.25 2.0195 1.1484 0.85156-0.10547 1.5352-0.75391 1.6836-1.5977 3.0586-14.52-8.2383-26.27-7.6406-40.57z"/>
  <path d="m363.82 424.57c-0.45703-1.832-1.3555-3.5234-1.7188-5.375-0.17969-1.2109-1.2891-2.0625-2.5039-1.9219-1.2188 0.14062-2.1016 1.2227-2.0039 2.4414 0.058594 1.6094-0.16016 3.2148-0.65234 4.75-0.32422 1.5391-0.55859 3.0938-0.69141 4.6602-0.54297 5.1875 7.6562 6.2734 7.9531 1.1602h-0.003906c0.17578-1.9102 0.046875-3.8398-0.37891-5.7148z"/>
  <path d="m369.25 87.012c-8.1797-0.19531-15.949 3.5586-20.887 10.082-4.1914 7.2539-7.1289 15.16-8.6875 23.395-2.1875 7.6797-5.457 15.012-9.707 21.773-4.5391 6.5234-10.539 11.902-17.523 15.703-6.5195 3.2461-11.836 8.4883-15.168 14.969-5.8477 13.426 3.5195 26.789 7.1172 39.371 1.1562 3.5742 1.6094 7.3398 1.332 11.09-0.78906 4.3477-2.6406 8.4375-5.3945 11.895-5.3984 7.5117-8.0195 16.66-7.4219 25.887 0.11328 1.5664 2.3828 1.2305 2.375-0.27344h0.003906c0.25-8.3359 3.5156-16.297 9.1836-22.41 4.2188-4.6836 6.7383-10.645 7.1562-16.934 0.39453-11.984-5.9805-22.965-6.7188-34.855-0.82422-13.316 10.793-19.664 19.738-27.199 10.191-9.5312 17.734-21.543 21.891-34.863 2.0039-7.6836 5.0977-15.043 9.1836-21.855 2.4766-3.2578 6.0273-5.5312 10.023-6.418 2.9102-0.60938 10.051-0.65234 9.1406 4.0312-0.83984 4.3359 6.1992 6.4453 7.5547 2.1172 2.8281-9.0352-4.6406-15.27-13.191-15.504z"/>
  <path d="m385.6 145.81c-3.7656 1.5547-7.7578 2.4727-11.82 2.7188-1.9258 0.054688-3.8555-0.003906-5.7773-0.17578-1.7852 0.13281-3.5781 0.12109-5.3594-0.042969-1.2305-0.33594-1.5664 2.0156-0.41406 2.4648 0.91797 0.36328 1.6953 1.3086 2.6172 1.7266 0.90625 0.39453 1.8555 0.67188 2.8281 0.82422 2.2148 0.34375 4.4727 0.31641 6.6758-0.085937 4.3906-0.74609 8.5273-2.5703 12.039-5.3086 0.9375-0.74219 0.17188-2.4883-0.78906-2.1211z"/>
  <path d="m322.77 146.53c3.7617 1.5508 7.7578 2.4688 11.82 2.7188 1.9297 0.054687 3.8555 0 5.7773-0.17578 1.7852 0.13672 3.5781 0.12109 5.3633-0.039062 1.2305-0.33594 1.5625 2.0156 0.41406 2.4648-0.91797 0.36328-1.6953 1.3086-2.6172 1.7266h-0.003906c-0.90234 0.39062-1.8516 0.66797-2.8242 0.81641-2.2148 0.34375-4.4727 0.31641-6.6797-0.085937-4.3867-0.74609-8.5234-2.5703-12.035-5.3125-0.94141-0.73438-0.17969-2.4805 0.78516-2.1133z"/>
  <path d="m370.26 182.94c-3.7969 1.4219-7.8555 2.0312-11.902 1.793-3.7734 0-8.1523 1.9961-11.809 0.82422-0.88672-0.28516-1.4727 1.0195-0.57422 1.3555 4.6172 1.7266 7.7266 4.9414 13.078 3.8516 4.4375-1.2109 8.5352-3.4375 11.961-6.5039 0.29297-0.23828 0.37109-0.65234 0.18359-0.98047-0.1875-0.32422-0.58203-0.46875-0.9375-0.33984z"/>
  <path d="m361.2 173.82c-3.2578 1.2656-6.832 1.4609-10.211 0.55859-0.60156-0.24219-1.2891 0.042969-1.543 0.64453-0.25781 0.59766 0.015626 1.293 0.60938 1.5586 3.8867 2.3125 8.7656 2.1602 12.5-0.39063 1.3281-0.92969 0.0625-2.8477-1.3555-2.3711z"/>
  <path d="m386.65 136.86c-3.1133-2.0039-6.7773-2.9805-10.48-2.8008-4.5195 0.68359-8.8047 2.457-12.488 5.1641-0.71484 0.3125-1.0508 1.1367-0.75781 1.8594 0.28906 0.72656 1.1055 1.0859 1.8359 0.8125 3.3008-1.0352 6.832-1.5273 10.18-2.4414h0.003906c3.5742-1.2578 7.3867-1.6953 11.152-1.2773 0.6875 0.10156 1.1953-0.91406 0.55469-1.3164z"/>
  <path d="m407.98 149.17c-0.63281-7.4258-2.5508-14.688-5.6719-21.457-3.6016-6.8516-8.332-13.047-13.988-18.332-1.1289-1.168-3.1836 0.33594-2.0469 1.5664 4.5156 5.4844 7.9297 11.789 10.047 18.566 2.4375 6.5898 3.9414 13.484 4.4688 20.488 0.51953 7.4883 0.097657 15.008-1.2539 22.387-1.2852 8.0195-3.5 15.859-6.6016 23.363-0.82812 1.8789 1.9258 2.9492 2.8789 1.2227 4.3203-7.207 7.6836-14.945 10.008-23.02 2.1367-8.0781 2.8672-16.461 2.1602-24.785z"/>
  <path d="m325.91 200.27c-2.5391-7.6055-8.7695-20.301-1.4062-26.98 1.0703-0.97266-0.29297-2.7852-1.3789-1.8008-2.9883 2.7734-5.1836 6.293-6.3516 10.203-1.168 3.9062-1.2695 8.0547-0.29688 12.012 0.97266 5.2656 2.6602 10.367 3.2383 15.707v0.003907c0.60156 5.0391 0.44141 10.141-0.47656 15.133-0.98828 4.9766-2.7461 9.7695-5.2188 14.199-2.7266 4.1133-5.1953 8.3906-7.3906 12.809-3.3477 8.8398-2.3945 18.73 2.5742 26.77 0.67188 1.0586 2.1094 0.023437 1.793-1.0234-1.6055-4.8359-1.8359-10.027-0.66406-14.984 1.5195-4.1953 3.6758-8.1289 6.3984-11.664 5.3516-7.2188 9.1484-15.469 11.148-24.23 1.6094-8.7422 0.93359-17.75-1.9688-26.152z"/>
  <path d="m397.75 94.773c-0.16797-6.0078-2.5508-11.742-6.6875-16.102-4.4375-4.6836-10.457-7.5508-16.891-8.0469-13.371-0.80859-22.547 9.1562-31.625 17.406-0.83984 0.76172 0.23047 2.1836 1.0781 1.4141 6.8789-7.7422 16.832-12.043 27.184-11.742 4.8516 0.57812 9.4219 2.5781 13.133 5.75 3.6055 3.2539 6.2852 7.3984 7.7773 12.016 0.24609 1.6172 1.7266 2.7539 3.3555 2.5664 1.625-0.1875 2.8086-1.6328 2.6758-3.2617z"/>
  <path d="m381.25 63.094c-10.098-5.1016-21.441-7.2266-32.703-6.1172-11.746 1.5859-22.848 6.3125-32.129 13.684-18.586 15.285-30.422 37.262-32.949 61.191-1.0195 15.582-0.070313 31.23 2.8203 46.574 0.070313 0.42188 0.45703 0.71484 0.87891 0.66406 0.42578-0.046875 0.73438-0.42188 0.70703-0.84375-0.50781-12.719 0.42188-25.453 2.7773-37.961 1.7773-11.402 4.8984-22.551 9.293-33.223 7.7852-19.672 23.719-35 43.676-42.023 11.895-4.2656 24.906-4.2539 36.793 0.03125 0.53906 0.20703 1.1445-0.054687 1.3711-0.58594 0.22266-0.53125-0.011719-1.1445-0.53516-1.3906z"/>
  <path d="m323.42 108.91c-2.3789 4.1445-4.9062 8.2227-7.043 12.496v-0.003906c-1.8984 4.2969-3.5703 8.6875-5.0078 13.16-1.6797 3.6094-3.8516 6.9727-6.457 9.9805-2.1094 2.8828-3.7852 6.0625-4.9688 9.4336-0.36719 0.94141 0.078126 2.0039 1.0117 2.4023 0.92969 0.39453 2.0078-0.023438 2.4297-0.94141 1.9023-3.4297 5.8633-5.3398 8.7031-7.9766 2.8906-2.5938 4.9922-5.9492 6.0586-9.6836 1.2539-4.5312 1.293-9.3242 2.1953-13.934 0.85938-4.957 2.5469-9.7305 4.9961-14.121 0.66797-1.1602-1.2578-1.9648-1.918-0.8125z"/>
 </g>
</svg>
