<?xml version="1.0" standalone="no"?>
<svg viewBox="0 0 200 200" xmlns="http://www.w3.org/2000/svg">
  <path fill="#FFFBCB" d="M43.6,-74.5C57.7,-67.4,71.1,-58.1,79.7,-45.3C88.4,-32.5,92.4,-16.2,91.4,-0.6C90.3,15.1,84.3,30.1,76.4,44.3C68.6,58.6,58.9,72,45.9,80.3C32.9,88.7,16.4,92,0.6,90.9C-15.2,89.8,-30.4,84.4,-43.7,76.2C-56.9,68,-68.1,56.9,-75.6,43.7C-83.2,30.6,-87,15.3,-87.7,-0.5C-88.5,-16.2,-86.3,-32.4,-79,-45.9C-71.6,-59.4,-59.2,-70.2,-45.2,-77.3C-31.2,-84.4,-15.6,-87.8,-0.4,-87.1C14.8,-86.4,29.6,-81.6,43.6,-74.5Z" transform="translate(100 100)" />
</svg>
