<!--?xml version="1.0" standalone="no"?-->
              <svg id="sw-js-blob-svg" viewBox="0 0 100 100" xmlns="http://www.w3.org/2000/svg" version="1.1">
                    <defs> 
                        <linearGradient id="sw-gradient" x1="0" x2="1" y1="1" y2="0">
                            <stop id="stop1" stop-color="rgba(201, 149, 159, 1)" offset="0%"></stop>
                            <stop id="stop2" stop-color="rgba(201, 149, 31, 1)" offset="100%"></stop>
                        </linearGradient>
                    </defs>
                <path fill="rgba(201, 149, 159, 1)" d="M25.2,-29.8C31.4,-24.9,34.1,-15.7,35.2,-6.7C36.2,2.4,35.5,11.2,31.2,17.3C26.8,23.3,18.8,26.6,10.5,30.3C2.1,33.9,-6.6,38.1,-15.1,36.9C-23.5,35.8,-31.7,29.4,-36.1,21.2C-40.5,12.9,-41,2.8,-39.1,-6.7C-37.2,-16.2,-32.9,-25.1,-25.9,-29.8C-19,-34.6,-9.5,-35.1,0,-35.2C9.5,-35.2,19.1,-34.7,25.2,-29.8Z" width="100%" height="100%" transform="translate(50 50)" style="transition: all 0.3s ease 0s;" stroke-width="0" stroke="rgba(201, 149, 159, 1)"></path>
              </svg>