<!--?xml version="1.0" standalone="no"?-->
              <svg id="sw-js-blob-svg" viewBox="0 0 100 100" xmlns="http://www.w3.org/2000/svg" version="1.1">
                    <defs> 
                        <linearGradient id="sw-gradient" x1="0" x2="1" y1="1" y2="0">
                            <stop id="stop1" stop-color="rgba(201, 149, 159, 1)" offset="0%"></stop>
                            <stop id="stop2" stop-color="rgba(201, 149, 31, 1)" offset="100%"></stop>
                        </linearGradient>
                    </defs>
                <path fill="rgba(201, 149, 159, 1)" d="M28.8,-33.4C36.7,-27.6,42.1,-18,43.4,-8C44.8,2,42.1,12.4,36.9,21.4C31.8,30.5,24.3,38.2,15.5,40.6C6.7,43,-3.4,40,-11.4,35.3C-19.5,30.7,-25.4,24.4,-28.9,17.3C-32.3,10.1,-33.1,2.1,-31.8,-5.6C-30.4,-13.2,-26.8,-20.4,-21.1,-26.6C-15.4,-32.7,-7.7,-37.8,1.3,-39.4C10.4,-41,20.8,-39.2,28.8,-33.4Z" width="100%" height="100%" transform="translate(50 50)" style="transition: all 0.3s ease 0s;" stroke-width="0" stroke="rgba(201, 149, 159, 1)"></path>
              </svg>