<!--?xml version="1.0" standalone="no"?-->
              <svg id="sw-js-blob-svg" viewBox="0 0 100 100" xmlns="http://www.w3.org/2000/svg" version="1.1">
                    <defs> 
                        <linearGradient id="sw-gradient" x1="0" x2="1" y1="1" y2="0">
                            <stop id="stop1" stop-color="rgba(201, 149, 159, 1)" offset="0%"></stop>
                            <stop id="stop2" stop-color="rgba(201, 149, 31, 1)" offset="100%"></stop>
                        </linearGradient>
                    </defs>
                <path fill="rgba(201, 149, 159, 1)" d="M22.3,-28.5C27.7,-22,30.2,-13.9,32.5,-5.1C34.8,3.7,37,13.1,33.7,20.1C30.5,27.1,21.8,31.7,13,34.2C4.2,36.7,-4.8,37.2,-12.2,34.2C-19.6,31.2,-25.5,24.7,-29.9,17.2C-34.3,9.8,-37.2,1.3,-35.2,-5.5C-33.1,-12.3,-26.1,-17.6,-19.5,-23.9C-12.8,-30.2,-6.4,-37.6,1,-38.9C8.4,-40.1,16.8,-35.1,22.3,-28.5Z" width="100%" height="100%" transform="translate(50 50)" style="transition: all 0.3s ease 0s;" stroke-width="0" stroke="rgba(201, 149, 159, 1)"></path>
              </svg>